:SAMPLES-PER-SECOND 24
:FULLY-SPECIFIED
:DEGREES
500
root  -7.77407 38.9123 -0.294164 -174.971 64.3603 -179.057
RightUpLeg  -5.97085 4.39962 -3.99703
RightLeg  23.8128 -11.9678 -5.93807
RightFoot  -18.2829 0.182209 5.04439
RightToes  -2.09809e-008 3.77894e-005 6.81332e-007
Spine  -2.09621 0.36343 13.2826
Spine1  13.7203 1.67713 -5.6866
HEad  -16.3137 41.2358 -20.2002
LeftShoulder1  6.24971 -11.8385 -34.7224
LeftArm  0.457955 27.1543 -36.153
LeftForeArm  175.479 -64.8508 -159.673
LeftHand  -0.101612 -2.81515 1.65889
RightShoulder  3.28611 5.85191 29.1982
RightArm  10.3314 -25.6827 30.9832
RightForeArm  150.922 74.5978 141.886
RightHand  -0.404907 8.2093 -3.82516
LeftUpLeg  -19.1209 -3.36755 17.6157
LeftLeg  24.6479 -4.69136 -2.01852
LeftFoot  -2.84874 1.49098 -19.6684
LeftToes  1.24773e-006 1.46318e-008 1.32523e-009
501
root  -7.85896 38.8458 -0.817284 -174.548 64.0049 -178.723
RightUpLeg  -5.70504 4.11361 -4.68793
RightLeg  23.6335 -11.7887 -5.80945
RightFoot  -18.3307 0.242872 6.00978
RightToes  -2.09809e-008 3.77894e-005 6.81332e-007
Spine  -1.92985 0.330059 13.0833
Spine1  13.7749 1.68982 -5.77021
HEad  -16.1658 41.1778 -19.6195
LeftShoulder1  6.30017 -11.8952 -34.8974
LeftArm  0.051762 27.5549 -36.0985
LeftForeArm  175.334 -64.8923 -159.621
LeftHand  -0.10806 -2.81317 1.75012
RightShoulder  3.29916 5.85718 29.3206
RightArm  11.0229 -24.6311 31.2115
RightForeArm  149.715 74.9481 140.756
RightHand  -0.471499 8.50733 -4.31
LeftUpLeg  -19.059 -3.18157 17.5974
LeftLeg  24.2221 -1.83267 -0.578833
LeftFoot  -4.3982 1.07145 -17.1278
LeftToes  1.24773e-006 1.46318e-008 1.32523e-009
502
root  -7.9282 38.7802 -1.4764 -173.689 63.735 -178.06
RightUpLeg  -5.30015 4.08361 -5.38915
RightLeg  23.114 -11.9537 -5.75332
RightFoot  -18.0883 0.276204 6.7617
RightToes  -2.09809e-008 3.77894e-005 6.81332e-007
Spine  -1.98577 0.281465 13.1652
Spine1  13.8187 1.80911 -6.4582
HEad  -15.7646 41.2701 -18.7204
LeftShoulder1  6.26303 -11.8627 -34.7445
LeftArm  -0.289059 28.1589 -36.0775
LeftForeArm  175.129 -64.8129 -159.669
LeftHand  -0.12466 -2.87165 1.97638
RightShoulder  3.33028 5.89349 29.5199
RightArm  11.6091 -23.2243 32.0282
RightForeArm  148.604 75.1871 139.896
RightHand  -0.548216 8.56098 -4.93181
LeftUpLeg  -18.8518 -3.19017 17.9425
LeftLeg  23.1309 2.77663 1.62306
LeftFoot  -5.5353 0.781572 -14.6921
LeftToes  1.24773e-006 1.46318e-008 1.32523e-009
503
root  -8.0119 38.674 -2.2742 -172.477 63.372 -177.078
RightUpLeg  -4.7673 3.93676 -6.14073
RightLeg  22.359 -12.0731 -5.61595
RightFoot  -17.9414 0.329175 7.81087
RightToes  -2.09809e-008 3.77894e-005 6.81332e-007
Spine  -2.11909 0.414544 12.629
Spine1  13.9524 1.85762 -6.21246
HEad  -15.5358 40.9731 -18.1014
LeftShoulder1  6.28882 -11.9073 -34.7932
LeftArm  -0.417245 28.3983 -35.8949
LeftForeArm  174.81 -64.8081 -159.641
LeftHand  -0.107252 -2.83451 1.73612
RightShoulder  3.3179 5.89697 29.3717
RightArm  11.8708 -21.9876 33.5723
RightForeArm  148.254 75.2864 139.552
RightHand  -0.581602 8.51531 -5.22356
LeftUpLeg  -19.014 -4.07289 18.6912
LeftLeg  22.5825 5.44767 2.81042
LeftFoot  -6.55839 0.566617 -12.5902
LeftToes  1.24773e-006 1.46318e-008 1.32523e-009
504
root  -8.12911 38.5035 -3.26278 -170.883 62.5945 -175.848
RightUpLeg  -4.20686 3.72672 -6.98984
RightLeg  21.5888 -12.1596 -5.46252
RightFoot  -17.762 0.42213 9.66341
RightToes  -2.09809e-008 3.77894e-005 6.81332e-007
Spine  -2.36943 0.508633 12.3613
Spine1  13.9701 1.82412 -5.84265
HEad  -15.6167 40.3741 -17.551
LeftShoulder1  6.2945 -11.9255 -34.7818
LeftArm  -0.0604312 28.1705 -35.6392
LeftForeArm  174.664 -64.9884 -159.466
LeftHand  -0.0833743 -2.81355 1.40056
RightShoulder  3.33729 5.94363 29.4028
RightArm  11.8834 -21.3059 35.2771
RightForeArm  148.139 75.407 139.188
RightHand  -0.574188 8.51473 -5.1622
LeftUpLeg  -19.7796 -5.64981 19.5597
LeftLeg  22.8195 5.47937 2.85212
LeftFoot  -7.25153 0.458859 -11.6073
LeftToes  1.24773e-006 1.46318e-008 1.32523e-009
505
root  -8.28318 38.291 -4.46645 -168.852 61.547 -174.514
RightUpLeg  -3.7761 3.59233 -7.97254
RightLeg  20.7479 -12.9429 -5.62883
RightFoot  -17.0399 0.449163 11.3153
RightToes  -2.09809e-008 3.77894e-005 6.81332e-007
Spine  -2.71887 0.642151 12.7498
Spine1  13.5125 1.94261 -6.13318
HEad  -15.4883 39.425 -16.6061
LeftShoulder1  6.29673 -11.9341 -34.7737
LeftArm  0.920862 27.5265 -35.3511
LeftForeArm  174.401 -65.3323 -159.128
LeftHand  -0.0961373 -2.94849 1.56474
RightShoulder  3.37373 5.96989 29.6964
RightArm  11.3557 -21.7046 36.3678
RightForeArm  148.607 75.3786 139.361
RightHand  -0.552806 8.58161 -4.96345
LeftUpLeg  -21.125 -6.4348 19.904
LeftLeg  23.943 3.77235 2.15805
LeftFoot  -8.88694 0.329944 -13.0593
LeftToes  1.24773e-006 1.46318e-008 1.32523e-009
506
root  -8.50166 38.0888 -5.81707 -167.848 60.4915 -174.554
RightUpLeg  -3.35582 2.92599 -9.89254
RightLeg  19.5819 -13.5188 -5.61551
RightFoot  -16.1635 0.456971 13.3837
RightToes  -2.09809e-008 3.77894e-005 6.81332e-007
Spine  -2.65766 0.762342 11.6526
Spine1  12.3348 1.87635 -5.84
HEad  -15.1629 38.2453 -15.4836
LeftShoulder1  6.37593 -12.016 -35.0652
LeftArm  1.93319 26.646 -35.5087
LeftForeArm  174.047 -65.6956 -158.754
LeftHand  -0.110048 -3.11631 1.73711
RightShoulder  3.40863 5.98497 30.0135
RightArm  10.3017 -22.9657 36.3447
RightForeArm  149.791 75.1019 140.358
RightHand  -0.544971 8.519 -4.91804
LeftUpLeg  -23.2565 -6.11948 18.4678
LeftLeg  26.7616 1.82589 1.32841
LeftFoot  -11.7766 0.0108477 -14.8458
LeftToes  1.24773e-006 1.46318e-008 1.32523e-009
